<svg id="Layer_1" data-name="Layer 1" xmlns="http://www.w3.org/2000/svg" xmlns:xlink="http://www.w3.org/1999/xlink" viewBox="0 0 525.09 148.21"><defs><style>.cls-1,.cls-2,.cls-3,.cls-4,.cls-5{fill-rule:evenodd;}.cls-1{fill:url(#linear-gradient);}.cls-2{fill:url(#linear-gradient-2);}.cls-3{fill:url(#linear-gradient-3);}.cls-4{fill:url(#linear-gradient-4);}.cls-5{fill:url(#linear-gradient-5);}.cls-6{fill:url(#linear-gradient-6);}.cls-7{fill:url(#linear-gradient-7);}.cls-8{fill:#041a3a;}</style><linearGradient id="linear-gradient" x1="325.63" y1="182.2" x2="325.63" y2="144.09" gradientUnits="userSpaceOnUse"><stop offset="0" stop-color="#f5b53d"/><stop offset="0.48" stop-color="#f3b33c"/><stop offset="0.65" stop-color="#eeac3a"/><stop offset="0.78" stop-color="#e4a137"/><stop offset="0.88" stop-color="#d69032"/><stop offset="0.96" stop-color="#c57a2c"/><stop offset="1" stop-color="#ba6d28"/></linearGradient><linearGradient id="linear-gradient-2" x1="370.9" y1="182.2" x2="370.9" y2="144.03" xlink:href="#linear-gradient"/><linearGradient id="linear-gradient-3" x1="414.99" y1="182.2" x2="414.99" y2="144.04" xlink:href="#linear-gradient"/><linearGradient id="linear-gradient-4" x1="461.31" y1="182.2" x2="461.31" y2="144.04" xlink:href="#linear-gradient"/><linearGradient id="linear-gradient-5" x1="508.12" y1="182.2" x2="508.12" y2="144.04" xlink:href="#linear-gradient"/><linearGradient id="linear-gradient-6" x1="87.64" y1="100.38" x2="115.75" y2="100.38" xlink:href="#linear-gradient"/><linearGradient id="linear-gradient-7" x1="236.39" y1="28.41" x2="236.39" y2="8.79" xlink:href="#linear-gradient"/></defs><path class="cls-1" d="M305.36,152.46v21.37c0,4.57,2.14,7.89,6.57,8.37h16.29c1.95,0,3.9-1.64,4.79-3.06.29,1.35.57,2.89,1.77,3.06H345.9v-.59l-1.48-2.41V161.37l1.05-1.69H322.53v6.85a5.55,5.55,0,0,1,1.58-1.29h6.44l0,8.59a2.19,2.19,0,0,1-2.3,2.24h-6.39a2.17,2.17,0,0,1-2.3-2.24l0-21.37a2.52,2.52,0,0,1,2-2.22h19.69a4.28,4.28,0,0,1,2,.92c0-2.17.29-6.42-2-7.07H311.93c-4.08.14-6.57,4.44-6.57,8.37" transform="translate(-3.48 -81.05)"/><path class="cls-2" d="M364.56,150.1h9.9a2.33,2.33,0,0,1,2,2v5.86a2.17,2.17,0,0,1-2,2h-9.9Zm-15.12-5.48,2,1.9v32.62l-2,2.47v.59h17.11v-.59l-2-2.47V165.6H369l7.53,16.6h15.85L384,165.6h2c1.54-.12,3.61-.75,3.81-3.3V149.66c-.71-4.51-6.29-5.77-7.89-5.62H349.44Z" transform="translate(-3.48 -81.05)"/><path class="cls-3" d="M411.12,150.25h7.72a2.42,2.42,0,0,1,2.37,2.66v20.3c-.14,1.63-.85,2.57-2.37,2.66h-7.72a2.67,2.67,0,0,1-2.37-2.66c-.12-6.31.12-14,0-20.3a2.71,2.71,0,0,1,2.37-2.66m-16.32,3v21.5c.47,5,4.88,7.4,8.37,7.48h25a8.35,8.35,0,0,0,7-7.48v-21.5c-.27-5.43-4.37-9-7-9.18h-25C397.7,144.33,394.87,148.87,394.8,153.22Z" transform="translate(-3.48 -81.05)"/><path class="cls-4" d="M441.92,146.52c0,7,0,20.08,0,27.07,0,3,2.38,8.72,8.81,8.61h22.33c4.66-.43,7.73-5.27,7.75-8.65l.09-27,1.47-1.9V144h-9.31v.58l1.47,1.9v27c-.08,1.4-.59,2.2-1.47,2.31-5.48,0-12.86.1-15.94,0-.27-.07-1.36-.31-1.46-3.07V146.52l1.67-1.9V144H440.25v.58Z" transform="translate(-3.48 -81.05)"/><path class="cls-5" d="M503,150.2l8.58,0a2.87,2.87,0,0,1,2.9,2.82v6.78a2.87,2.87,0,0,1-2.9,2.82l-8.58,0Zm-15.29-5.58,1.44,1.9v32.62l-1.44,2.47v.59h16.73v-.59L503,179.14l-.29-10.73h18.43c2.91-.12,7.14-2.15,7.48-5.42V149.34c-.61-3.08-3.15-5-7.48-5.3H487.66Z" transform="translate(-3.48 -81.05)"/><path class="cls-6" d="M112.93,94.94l2.82,6c-.56.61-1.22,1.25-2,1.93-.39.34-.94.79-1.68,1.37a8,8,0,0,1-4.44,1.32l-1.93-.15-1.93-.56-2.25-1-3.82-1.47-1.46-.25-1.51-.06a4.94,4.94,0,0,0-3.14,1.17,8.75,8.75,0,0,0-1.88,2.49l-2.09-6.45a11.64,11.64,0,0,1,1-1.52,17.38,17.38,0,0,1,1.57-1.43A8.74,8.74,0,0,1,95,95.09c.38,0,.82,0,1.3,0s1.17.26,1.94.46l1.77.46,1.57.66L104.94,98a7.68,7.68,0,0,0,2.71.56,5.15,5.15,0,0,0,3.61-1.68Z" transform="translate(-3.48 -81.05)"/><polygon class="cls-7" points="233.2 15.04 236.7 8.79 239.67 15.3 246.86 16.6 241.41 21.36 242.36 28.41 236.03 24.85 229.42 27.9 230.95 20.95 225.92 15.78 233.2 15.04"/><polygon class="cls-8" points="235.44 0 220.91 0 213.73 10.77 222.03 10.77 235.44 0"/><path class="cls-8" d="M36,114.74q-1.89,18.45-3.61,42.17-1.72-23.47-5.75-57.47H3.48l12.7,82.27H49.57L60.75,99.44H37.55Z" transform="translate(-3.48 -81.05)"/><path class="cls-8" d="M165,155.69h0q0,8.24-1.09,10.09c-.73,1.24-2.69,1.86-5.86,1.86V141.81h2.81V131.72H158v-18.2a11.16,11.16,0,0,1,4.92.74,3.41,3.41,0,0,1,1.67,2.31,42.38,42.38,0,0,1,.36,7.16Zm17.61-50.15a16.64,16.64,0,0,0-8.54-4.67q-5.62-1.43-21.55-1.43H136v32.28h-4.31v10.09H136v39.9h27.74a61,61,0,0,0,11.81-.84,15.88,15.88,0,0,0,6.59-2.94,11.14,11.14,0,0,0,3.73-5.85q1.06-3.74,1.07-14.81V128.46q0-11.69-.73-15.68A14.67,14.67,0,0,0,182.57,105.54Z" transform="translate(-3.48 -81.05)"/><path class="cls-8" d="M299.11,135.32v-7.83q0-11.53-2-17c-1.32-3.64-4.09-6.69-8.31-9.12s-9.56-3.66-16-3.66a31.82,31.82,0,0,0-12.67,2.36,20.7,20.7,0,0,0-8.62,6.48,18.35,18.35,0,0,0-3.74,8.56,103.43,103.43,0,0,0-.63,13.34v24q0,12.1,2,18.12a16.7,16.7,0,0,0,8.31,9.42q6.27,3.41,15.94,3.41,9.3,0,15.65-4t8.2-9.35q1.86-5.32,1.86-18.08v-3.21h-22V159.1c0,4.5-.26,7.37-.76,8.59a3.11,3.11,0,0,1-3.21,1.83q-2.56,0-3.3-1.83c-.48-1.22-.73-3.83-.73-7.83V121.65c0-4.17.25-6.88.73-8.13s1.64-1.88,3.45-1.88c1.6,0,2.64.52,3.11,1.55s.71,3.63.71,7.8v14.33Z" transform="translate(-3.48 -81.05)"/><path class="cls-8" d="M107.5,107.45l-2.13-.17-2.24-.65-2.36-1-3.57-1.38-1.14-.2-1.38,0a3,3,0,0,0-1.87.75,6.85,6.85,0,0,0-1.41,1.94l-.6,1.07v52.3q0,6.15-.6,7.8a2.54,2.54,0,0,1-2.69,1.66,2.36,2.36,0,0,1-2.43-1.5q-.6-1.5-.6-6.89V99.44h-22v48.68q0,13.94.52,18.27a17.3,17.3,0,0,0,3.4,8.26A20.09,20.09,0,0,0,75.07,181a34.23,34.23,0,0,0,13.38,2.44,31.44,31.44,0,0,0,11.89-2.06,19.14,19.14,0,0,0,8.12-6,17.58,17.58,0,0,0,3.71-7.77,92.36,92.36,0,0,0,.63-13.14V106a9.91,9.91,0,0,1-5.15,1.42Z" transform="translate(-3.48 -81.05)"/><path class="cls-8" d="M231.31,110.91l1.88-8.58-4.37-4.49h-8.29v60.62q0,6.15-.6,7.8a2.55,2.55,0,0,1-2.69,1.65,2.35,2.35,0,0,1-2.43-1.49q-.6-1.5-.6-6.89V97.84h-22v48.68q0,13.92.52,18.27a17.3,17.3,0,0,0,3.4,8.26,20.17,20.17,0,0,0,8.67,6.35,34.41,34.41,0,0,0,13.38,2.44,31.44,31.44,0,0,0,11.89-2.06,19.14,19.14,0,0,0,8.12-6.05A17.58,17.58,0,0,0,241.9,166a92.36,92.36,0,0,0,.63-13.14V108.88l-3.07-1.73Z" transform="translate(-3.48 -81.05)"/><polygon class="cls-8" points="6.81 122.52 0 122.52 0 118.46 18.23 118.46 18.23 122.52 11.42 122.52 11.42 142.85 6.81 142.85 6.81 122.52"/><path class="cls-8" d="M38.49,206.46h0q0-2.9-3.32-2.89H30v8.27h5.2c2.21,0,3.32-1,3.32-3ZM40,223.9l-5.6-8.07H30v8.07H25.36V199.51h10q4.14,0,6,1.68a6.32,6.32,0,0,1,1.75,4.92v3.18q0,4.58-3.66,5.9l6,8.71Z" transform="translate(-3.48 -81.05)"/><path class="cls-8" d="M53.52,214.85h6.74l-3.34-11.53Zm7.9,4h-9l-1.54,5.06H46l7.68-24.39h6.45l7.69,24.39H63Z" transform="translate(-3.48 -81.05)"/><path class="cls-8" d="M74.89,216.49h0q0,3.7,4.62,3.7t4.61-3.7v-9.58q0-3.71-4.61-3.7t-4.62,3.7Zm13.84.27a7,7,0,0,1-2,5.28c-1.57,1.47-4,2.21-7.2,2.21s-5.63-.74-7.19-2.21a6.93,6.93,0,0,1-2-5.28V206.64a6.92,6.92,0,0,1,2-5.27q2.34-2.22,7.19-2.22c3.22,0,5.63.74,7.2,2.22a7,7,0,0,1,2,5.27Z" transform="translate(-3.48 -81.05)"/><path class="cls-8" d="M105.4,216.35c0,2.52,1.42,3.77,4.25,3.77a26.71,26.71,0,0,0,3.77-.28v-7.4h4.35v10.72a29.61,29.61,0,0,1-8.15,1.09q-8.84,0-8.83-7.35V206.5q0-7.35,9.26-7.35a33.48,33.48,0,0,1,3.41.18A21.79,21.79,0,0,1,117,200l-.5,4a32.81,32.81,0,0,0-6.84-.66q-4.29,0-4.29,3.81Z" transform="translate(-3.48 -81.05)"/><rect class="cls-8" x="119.41" y="118.46" width="4.61" height="24.38"/><path class="cls-8" d="M140.46,195.45h0c1-.65,1.9-1.19,2.54-1.61.89-.58,1.67-1.14,2.32-1.66l1.74,2.72a39.32,39.32,0,0,1-5,3Zm-1.6,19.4h6.73l-3.34-11.53Zm7.89,4h-9l-1.54,5.06h-4.82L139,199.51h6.46l7.68,24.39h-4.84Z" transform="translate(-3.48 -81.05)"/><polygon class="cls-8" points="166 122.52 159.19 122.52 159.19 118.46 177.42 118.46 177.42 122.52 170.62 122.52 170.62 142.85 166 142.85 166 122.52"/><path class="cls-8" d="M197.69,206.46h0q0-2.9-3.33-2.89h-5.2v8.27h5.2c2.22,0,3.33-1,3.33-3Zm1.46,17.44-5.59-8.07h-4.4v8.07h-4.61V199.51h10q4.16,0,6,1.68a6.36,6.36,0,0,1,1.75,4.92v3.18q0,4.58-3.67,5.9l6,8.71Z" transform="translate(-3.48 -81.05)"/><path class="cls-8" d="M209,225.7h3.72v3.56H209Zm4.17-1.8h-4.61V199.51h4.61Z" transform="translate(-3.48 -81.05)"/><rect class="cls-8" x="222.44" y="130.72" width="9.22" height="3.74"/><path class="cls-8" d="M251.82,216.35c0,2.52,1.42,3.77,4.25,3.77a26.71,26.71,0,0,0,3.77-.28v-7.4h4.34v10.72a29.53,29.53,0,0,1-8.14,1.09q-8.84,0-8.83-7.35V206.5q0-7.35,9.25-7.35a33.52,33.52,0,0,1,3.42.18,21.79,21.79,0,0,1,3.57.63l-.5,4a32.81,32.81,0,0,0-6.84-.66q-4.29,0-4.29,3.81Z" transform="translate(-3.48 -81.05)"/><path class="cls-8" d="M276.35,225.7h3.74v3.56h-3.74Zm-1.53-10.85h6.74l-3.35-11.53Zm8.45-20.76h0a4.58,4.58,0,0,1-1.64,2.54,5.86,5.86,0,0,1-6.81,0,4.65,4.65,0,0,1-1.65-2.54l2.17-1.18a2.92,2.92,0,0,0,2.89,2.31,3,3,0,0,0,2.91-2.31Zm-.55,24.75h-9.05l-1.53,5.06h-4.83L275,199.51h6.45l7.68,24.39h-4.84Z" transform="translate(-3.48 -81.05)"/><polygon class="cls-8" points="294.28 122.52 287.47 122.52 287.47 118.46 305.7 118.46 305.7 122.52 298.89 122.52 298.89 142.85 294.28 142.85 294.28 122.52"/><polygon class="cls-8" points="322.02 122.52 315.21 122.52 315.21 118.46 333.44 118.46 333.44 122.52 326.63 122.52 326.63 142.85 322.02 142.85 322.02 122.52"/><polygon class="cls-8" points="350.74 142.85 350.74 132.57 341.7 132.57 341.7 142.85 337.08 142.85 337.08 118.46 341.7 118.46 341.7 128.49 350.74 128.49 350.74 118.46 355.35 118.46 355.35 142.85 350.74 142.85"/><path class="cls-8" d="M370,214.85h6.74l-3.34-11.53Zm3.88-16.91h0a40.7,40.7,0,0,1-5-3l1.77-2.72c.64.51,1.41,1.07,2.31,1.66l2.52,1.61Zm4,20.9h-9l-1.54,5.06h-4.83l7.69-24.39h6.45l7.68,24.39h-4.84Z" transform="translate(-3.48 -81.05)"/><polygon class="cls-8" points="388.98 124.36 388.98 142.85 384.48 142.85 384.48 118.46 390.63 118.46 399.88 136.98 399.88 118.46 404.39 118.46 404.39 142.85 398.24 142.85 388.98 124.36"/><polygon class="cls-8" points="423.53 142.85 423.53 132.57 414.49 132.57 414.49 142.85 409.87 142.85 409.87 118.46 414.49 118.46 414.49 128.49 423.53 128.49 423.53 118.46 428.14 118.46 428.14 142.85 423.53 142.85"/><path class="cls-8" d="M444.24,206.21q0-7.05,8.66-7.06a26.53,26.53,0,0,1,6.63.81l-.51,4a33.61,33.61,0,0,0-5.95-.62c-2.82,0-4.22,1.23-4.22,3.7v9.37c0,2.46,1.4,3.7,4.22,3.7a32.79,32.79,0,0,0,5.95-.63l.51,4a27,27,0,0,1-6.63.8q-8.65,0-8.66-7.06Z" transform="translate(-3.48 -81.05)"/><path class="cls-8" d="M468,216.49h0c0,2.47,1.53,3.7,4.61,3.7s4.61-1.23,4.61-3.7v-9.58q0-3.71-4.61-3.7c-3.08,0-4.61,1.23-4.61,3.7Zm0-20.61h0q2.39-1.59,4.65-3.32c.92.69,1.68,1.25,2.29,1.69s1.53,1.08,2.35,1.63L476,197.94c-1.11-.52-2.24-1.11-3.41-1.79-1.16.67-2.28,1.26-3.36,1.79Zm13.87,20.88a7,7,0,0,1-2,5.28q-2.35,2.21-7.2,2.21T465.41,222a7,7,0,0,1-2-5.28V206.64a7,7,0,0,1,2-5.27q2.34-2.22,7.19-2.22t7.2,2.22a7,7,0,0,1,2,5.27Z" transform="translate(-3.48 -81.05)"/><polygon class="cls-8" points="487.77 124.36 487.77 142.85 483.27 142.85 483.27 118.46 489.42 118.46 498.68 136.98 498.68 118.46 503.18 118.46 503.18 142.85 497.03 142.85 487.77 124.36"/><path class="cls-8" d="M516.2,216.35c0,2.52,1.42,3.77,4.26,3.77a26.82,26.82,0,0,0,3.77-.28v-7.4h4.34v10.72a29.61,29.61,0,0,1-8.15,1.09q-8.83,0-8.83-7.35V206.5q0-7.35,9.26-7.35a33.33,33.33,0,0,1,3.41.18,22.12,22.12,0,0,1,3.58.63l-.5,4a32.91,32.91,0,0,0-6.85-.66q-4.29,0-4.29,3.81Z" transform="translate(-3.48 -81.05)"/></svg>